<?xml version="1.0" encoding="UTF-8"?>
<!DOCTYPE svg PUBLIC "-//W3C//DTD SVG 1.1//EN" "http://www.w3.org/Graphics/SVG/1.1/DTD/svg11.dtd">
<svg version="1.1" xmlns="http://www.w3.org/2000/svg" xmlns:xlink="http://www.w3.org/1999/xlink" x="0" y="0" width="296.811" height="75.6" viewBox="0, 0, 296.811, 75.6">
  <g id="large" transform="translate(-315, -369.803)">
    <g>
      <text transform="matrix(1, 0, 0, 1, 486, 397.5)">
        <tspan x="-100.6" y="14.5" font-family="ContinuumMedium" font-size="40" fill="#909090">MANDEREN</tspan>
      </text>
      <text transform="matrix(1, 0, 0, 1, 499.512, 428.195)">
        <tspan x="-112.299" y="2.206" font-family="ContinuumMedium" font-size="19" fill="#909090">FRONT END DEVELOPER</tspan>
      </text>
      <g>
        <path d="M353.3,436.903 C337.394,436.903 324.5,424.009 324.5,408.103 C324.5,392.197 337.394,379.303 353.3,379.303 C369.206,379.303 382.1,392.197 382.1,408.103 C382.1,424.009 369.206,436.903 353.3,436.903 z" fill-opacity="0" stroke="#909090" stroke-width="4"/>
        <path d="M334.1,427.303 L334.1,388.903 L353.3,408.103 L372.5,388.903 L372.5,427.303 L353.3,388.903 L334.1,427.303" fill-opacity="0" stroke="#909090" stroke-width="4"/>
      </g>
    </g>
  </g>
</svg>
